<?xml version="1.0" standalone="no"?>
<!DOCTYPE svg PUBLIC "-//W3C//DTD SVG 20010904//EN"
 "http://www.w3.org/TR/2001/REC-SVG-20010904/DTD/svg10.dtd">
<svg version="1.0" xmlns="http://www.w3.org/2000/svg"
 width="700.000000pt" height="700.000000pt" viewBox="0 0 700.000000 700.000000"
 preserveAspectRatio="xMidYMid meet">
<metadata>
Created by potrace 1.14, written by Peter Selinger 2001-2017
</metadata>
<g transform="translate(0.000000,700.000000) scale(0.100000,-0.100000)"
fill="#000000" stroke="none">
<path d="M1710 5149 c0 -4 -21 -11 -47 -16 l-48 -8 -1 -80 c0 -44 -3 -86 -8
-93 -6 -10 -11 -318 -6 -347 1 -5 1 -14 0 -20 -5 -20 0 -76 7 -88 4 -6 7 -430
7 -942 1 -602 5 -935 11 -945 8 -12 47 -15 225 -17 295 -3 380 -10 380 -33 0
-4 18 -6 40 -4 22 2 40 0 40 -5 0 -4 19 -9 43 -9 42 -1 88 -8 117 -19 8 -3 24
-7 35 -9 29 -4 107 -23 125 -31 20 -8 41 -14 64 -17 11 -1 22 -8 24 -14 2 -6
10 -8 18 -5 8 3 14 0 14 -7 0 -7 7 -10 17 -6 10 4 14 4 11 0 -11 -10 15 -32
31 -26 9 4 12 1 7 -7 -5 -8 -3 -11 5 -9 15 3 152 -61 157 -74 2 -4 10 -8 18
-8 8 0 14 -5 14 -10 0 -6 5 -9 12 -8 6 2 17 -7 23 -20 7 -13 14 -23 16 -22 9
4 59 -24 59 -32 0 -5 4 -7 8 -4 10 6 46 -33 38 -41 -3 -3 -12 -1 -19 5 -8 7
-17 9 -20 5 -4 -3 -7 -1 -7 5 0 12 -38 27 -57 24 -7 -2 -13 2 -13 8 0 5 -7 10
-15 10 -8 0 -15 4 -15 8 0 4 -10 8 -21 9 -12 1 -31 11 -43 21 -11 11 -27 17
-33 15 -7 -3 -13 1 -13 7 0 7 -7 10 -15 7 -8 -4 -17 -2 -20 3 -4 6 -17 10 -30
10 -13 0 -27 5 -30 11 -4 6 -13 8 -21 5 -7 -3 -16 -1 -19 5 -4 5 -10 7 -15 4
-5 -3 -11 -1 -15 5 -3 5 -19 10 -35 10 -16 0 -31 4 -35 9 -3 6 -13 10 -23 10
-9 0 -39 5 -67 12 -27 6 -60 11 -72 10 -13 0 -23 3 -23 8 0 5 -12 9 -27 9 -14
0 -31 6 -37 14 -7 9 -28 13 -63 12 -29 -1 -53 2 -53 6 0 4 -21 6 -47 6 -27 -1
-54 3 -61 8 -6 4 -40 10 -75 12 -183 10 -329 15 -473 18 -89 2 -165 6 -170 9
-5 3 -9 71 -8 151 0 80 -3 146 -6 146 -3 0 -6 59 -5 131 0 72 -3 133 -7 136
-5 2 -8 26 -8 54 0 27 -4 49 -8 49 -4 0 -7 52 -7 115 1 63 -2 115 -6 115 -4 0
-7 56 -7 123 1 68 -3 130 -7 138 -5 7 -8 70 -8 139 1 68 -2 129 -6 135 -4 5
-7 72 -7 148 1 75 -2 137 -6 137 -5 0 -8 68 -7 150 0 123 3 150 15 150 8 0 14
5 14 12 0 6 3 8 7 5 3 -4 12 -2 20 4 9 8 13 40 13 110 0 87 -2 99 -19 109 -13
6 -22 7 -26 0 -3 -5 -12 -7 -19 -4 -8 3 -17 1 -21 -5 -3 -6 -24 -11 -45 -11
-21 0 -41 -4 -44 -8 -3 -5 -15 -8 -28 -7 -13 1 -28 -1 -33 -6 -6 -4 -23 -6
-39 -5 l-28 4 6 -127 c11 -247 15 -327 22 -431 3 -58 8 -181 10 -275 3 -93 8
-174 13 -180 4 -5 7 -68 6 -140 -1 -71 1 -134 4 -140 6 -10 9 -74 17 -405 2
-96 7 -182 11 -190 3 -8 7 -80 7 -160 1 -80 4 -149 7 -155 4 -5 6 -71 6 -145
0 -74 2 -147 6 -161 l7 -26 107 2 c66 0 120 -4 139 -12 17 -7 34 -10 37 -7 3
3 63 5 133 4 140 -1 174 -3 189 -11 6 -3 56 -5 113 -4 56 1 102 -2 102 -6 0
-4 26 -6 58 -5 31 1 71 -4 88 -11 17 -7 34 -9 37 -6 4 3 12 2 19 -4 7 -5 41
-8 76 -8 34 1 62 -3 62 -8 0 -4 17 -8 38 -6 20 1 55 -2 77 -6 22 -5 54 -9 70
-10 17 -1 30 -4 30 -5 0 -2 16 -4 35 -6 19 -2 58 -8 85 -14 28 -6 62 -11 78
-12 15 -1 27 -6 27 -10 0 -5 6 -8 13 -7 17 3 90 -12 102 -21 6 -4 18 -6 28 -5
9 2 17 -3 17 -10 0 -7 15 -16 33 -20 17 -4 41 -10 52 -13 11 -3 32 -6 47 -6
14 -1 24 -4 21 -8 -4 -7 20 -12 40 -9 4 0 7 -3 7 -7 0 -5 6 -9 13 -10 41 -3
68 -10 80 -20 8 -7 17 -9 20 -5 4 3 7 2 7 -4 0 -6 10 -10 23 -9 12 1 24 -1 27
-4 31 -33 170 -57 170 -29 0 6 7 8 16 5 10 -4 13 -2 8 6 -5 7 -2 9 9 5 8 -3
18 0 21 8 2 7 13 12 23 10 10 -1 23 1 28 5 16 13 113 39 119 33 3 -4 6 -1 6 6
0 7 7 11 15 8 8 -4 17 -2 20 3 4 6 17 10 30 10 13 0 26 4 30 9 3 6 14 8 25 6
11 -2 22 0 25 6 4 5 17 9 30 9 12 0 25 7 28 15 4 8 15 12 26 10 11 -2 23 0 26
6 4 5 19 9 36 9 16 0 29 4 29 9 0 4 11 7 25 6 14 -2 25 1 25 6 0 5 14 7 30 5
17 -2 33 0 36 5 3 5 23 9 45 9 21 0 39 4 39 8 0 5 12 8 28 7 15 -1 32 2 37 6
6 4 26 7 45 7 19 0 55 3 80 8 25 4 49 7 54 6 5 -2 16 0 25 4 9 4 39 9 66 11
68 4 95 8 125 18 14 4 54 10 90 12 91 4 207 13 260 18 62 7 227 8 237 2 4 -3
19 0 33 6 14 5 93 11 175 12 83 1 157 5 166 9 12 5 15 26 14 114 -1 59 2 112
6 117 8 10 12 126 21 525 1 91 6 170 9 175 3 6 6 68 5 138 -1 71 2 131 7 134
4 2 7 71 7 153 0 82 3 151 8 154 4 2 7 64 6 138 0 73 2 138 5 143 3 6 7 57 8
115 3 121 5 140 18 160 14 21 14 450 0 451 -5 1 -18 2 -27 2 -10 0 -18 3 -18
8 0 4 -16 6 -35 5 -19 -2 -38 0 -41 5 -3 5 -21 9 -40 9 -19 0 -34 4 -34 8 0 5
-10 8 -22 7 -13 -1 -26 2 -29 7 -3 5 -14 0 -25 -9 -18 -16 -20 -30 -19 -113 1
-105 7 -122 38 -119 39 3 44 -1 42 -23 -1 -13 -4 -23 -5 -23 -1 0 -3 -63 -5
-141 -1 -77 -5 -146 -9 -153 -5 -7 -8 -75 -8 -152 1 -76 -3 -139 -7 -139 -4 0
-6 -64 -5 -142 0 -79 -2 -147 -6 -153 -4 -5 -7 -62 -7 -125 0 -63 -3 -142 -8
-175 -4 -33 -8 -107 -8 -165 0 -58 -2 -109 -6 -115 -3 -5 -6 -73 -7 -150 -1
-77 -3 -141 -4 -142 -1 -2 -3 -6 -5 -10 -1 -5 -6 -19 -12 -33 -10 -26 -9 -152
2 -170 7 -11 3 -12 -215 -12 -85 0 -159 -3 -165 -8 -5 -4 -63 -7 -127 -6 -65
1 -118 -1 -118 -5 0 -6 -89 -17 -170 -20 -19 -1 -39 -5 -45 -9 -5 -3 -28 -6
-50 -6 -22 1 -44 -4 -50 -11 -5 -7 -23 -14 -40 -17 -16 -2 -32 -5 -35 -7 -6
-3 -13 -4 -67 -14 -24 -4 -43 -11 -43 -15 0 -3 -10 -6 -22 -5 -13 1 -30 -2
-38 -6 -8 -5 -37 -13 -65 -19 -52 -11 -60 -13 -85 -23 -15 -5 -61 -17 -88 -23
-8 -1 -23 -11 -34 -21 -11 -10 -25 -18 -31 -18 -13 -1 -69 -26 -77 -35 -3 -3
-12 -6 -20 -7 -25 -2 -84 -27 -92 -38 -5 -6 -8 -5 -8 3 0 7 11 18 25 24 14 6
25 15 25 20 0 4 7 8 15 8 9 0 18 7 21 15 4 8 10 12 16 9 5 -3 12 3 15 15 3 11
9 19 13 16 4 -3 13 2 20 10 7 8 19 15 26 15 8 0 14 5 14 11 0 5 4 8 9 4 5 -3
12 -1 16 5 4 6 10 8 15 5 4 -3 11 2 14 11 3 8 10 12 16 9 5 -3 10 -1 10 4 0 6
3 10 8 10 12 -2 72 25 72 33 0 4 9 5 20 3 11 -2 20 2 20 8 0 12 118 64 134 59
4 -1 14 3 22 9 8 6 14 8 14 4 0 -4 7 -2 16 6 8 7 25 14 37 15 24 3 40 6 134
27 34 7 70 12 80 11 9 -2 22 1 28 5 5 5 21 8 35 7 14 -1 36 5 49 13 15 10 52
16 95 17 39 1 71 3 71 4 0 2 98 4 218 5 119 1 220 5 224 9 10 9 10 2481 1
2507 -4 11 -13 19 -20 18 -14 -2 -67 10 -83 19 -20 12 -370 8 -412 -4 -35 -11
-71 -18 -133 -29 -8 -1 -22 -5 -30 -8 -28 -10 -75 -20 -87 -18 -6 1 -14 -3
-18 -9 -3 -5 -14 -10 -24 -10 -9 0 -23 -6 -29 -12 -7 -7 -16 -13 -20 -14 -4 0
-20 -6 -35 -12 -16 -7 -35 -12 -43 -12 -8 0 -14 -5 -14 -11 0 -6 -7 -9 -15 -5
-8 3 -15 2 -15 -3 0 -9 -57 -25 -79 -22 -7 1 -10 -2 -7 -8 4 -6 -9 -13 -29
-17 -19 -3 -35 -10 -35 -16 0 -5 -5 -6 -10 -3 -6 3 -13 0 -16 -8 -4 -12 -83
-55 -114 -62 -16 -4 -66 -31 -71 -38 -3 -5 -10 -9 -15 -9 -15 -1 -58 -22 -76
-38 -34 -30 -46 -39 -89 -60 -24 -12 -52 -29 -61 -38 -10 -8 -18 -12 -18 -8 0
4 -13 -1 -30 -11 -16 -9 -30 -21 -30 -26 0 -4 -4 -6 -8 -3 -5 3 -21 -7 -37
-22 -16 -15 -32 -26 -35 -26 -7 2 -54 -19 -60 -27 -3 -3 -13 -8 -22 -12 -15
-5 -18 -20 -18 -89 -1 -46 -2 -612 -3 -1258 -2 -1004 -4 -1175 -16 -1172 -8 2
-18 -3 -23 -10 -5 -9 -11 -10 -15 -3 -5 6 -15 10 -23 10 -8 0 -19 4 -25 9 -7
5 -9 273 -8 770 1 571 -2 763 -10 768 -9 6 -9 8 0 8 8 0 10 90 8 358 -5 555
-7 612 -22 612 -7 0 -13 5 -13 10 0 6 -3 9 -7 8 -13 -3 -67 26 -84 44 -9 10
-21 18 -26 18 -6 0 -18 9 -28 20 -9 10 -20 18 -24 17 -9 -2 -181 85 -181 93 0
7 -105 61 -115 60 -3 0 -13 6 -21 15 -9 8 -22 15 -30 15 -8 0 -14 5 -14 10 0
6 -9 10 -19 10 -11 0 -27 7 -35 16 -9 8 -20 12 -26 9 -5 -3 -10 -1 -10 4 0 6
-6 11 -14 11 -8 0 -17 7 -20 16 -3 8 -10 13 -15 9 -5 -3 -12 -1 -16 5 -3 5
-15 10 -26 10 -10 0 -19 4 -19 10 0 5 -3 9 -7 8 -10 -3 -85 22 -98 32 -5 5
-14 9 -20 10 -5 1 -20 6 -33 11 -13 5 -30 9 -38 9 -8 0 -14 5 -14 12 0 6 -3 9
-6 5 -4 -3 -25 4 -48 16 -22 13 -48 22 -56 22 -8 -1 -21 3 -27 8 -7 5 -19 7
-27 4 -7 -3 -22 0 -32 7 -11 7 -27 12 -36 10 -10 -1 -18 1 -18 6 0 4 -14 7
-31 6 -16 -1 -32 1 -35 6 -3 4 -15 8 -28 8 -12 0 -26 3 -30 7 -9 9 -396 10
-396 2z m2135 -2979 c3 -5 1 -10 -4 -10 -6 0 -11 5 -11 10 0 6 2 10 4 10 3 0
8 -4 11 -10z"/>
</g>
</svg>
